<?xml version="1.0" encoding="iso-8859-1"?>
<!-- Generator: Adobe Illustrator 24.1.0, SVG Export Plug-In . SVG Version: 6.00 Build 0)  -->
<svg version="1.1" id="Calque_1" xmlns="http://www.w3.org/2000/svg" xmlns:xlink="http://www.w3.org/1999/xlink" x="0px" y="0px"
	 width="401.006px" height="398.216px" viewBox="0 0 401.006 398.216" enable-background="new 0 0 401.006 398.216"
	 xml:space="preserve">
<g>
	<g>
		<path fill="#FFFFFF" d="M192.418,22.13c8.85-1.735,5.269-23.44-3.705-21.995C179.506,1.617,183.505,23.877,192.418,22.13z"/>
		<path fill="#FFFFFF" d="M180.874,33.828c7.285-4.48-3.106-22.57-10.597-18.306C162.591,19.897,173.537,38.341,180.874,33.828z"/>
		<path fill="#FFFFFF" d="M208.769,26.771c-2.757-1.708-10.048-4.034-16.547,0.046c-9.281,5.826-23.401,31.31-5.273,32.09
			c6.707,0.288,8.82-2.908,13.644-2.892c4.823-0.043,6.957,3.141,13.662,2.816C232.378,57.951,218.089,32.545,208.769,26.771z"/>
		<path fill="#FFFFFF" d="M208.543,22.081c8.924,1.693,12.788-20.592,3.572-22.017C203.132-1.326,199.683,20.4,208.543,22.081z"/>
		<path fill="#FFFFFF" d="M230.644,15.339c-7.517-4.218-17.797,13.934-10.486,18.37C227.522,38.177,238.356,19.667,230.644,15.339z"
			/>
	</g>
	<g>
		<path fill="#FFFFFF" d="M96.876,28.569c-7.464,5.591,6.422,23.443,13.503,17.754C117.409,40.674,104.151,23.12,96.876,28.569z"/>
		<path fill="#FFFFFF" d="M87.703,50.762c-4.772,7.445,13.491,18.689,17.89,11.284C109.961,54.694,92.354,43.505,87.703,50.762z"/>
		<path fill="#FFFFFF" d="M127.013,42.834c-3.235-0.231-10.771,1.098-14.63,7.731c-5.511,9.472-6.17,38.599,10.244,30.864
			c6.073-2.862,6.458-6.673,10.737-8.901c4.251-2.279,7.62-0.452,13.406-3.856C162.408,59.471,137.949,43.616,127.013,42.834z"/>
		<path fill="#FFFFFF" d="M124.634,38.786c8.688-2.648,1.754-24.176-7.069-21.155C108.965,20.575,116.007,41.415,124.634,38.786z"/>
		<path fill="#FFFFFF" d="M140.322,43.684c8.597,0.534,9.588-20.891,0.748-21.138C132.454,22.304,131.787,43.154,140.322,43.684z"/>
	</g>
	<g>
		<path fill="#FFFFFF" d="M48.979,105.871c3.6-8.269-16.297-17.652-20.207-9.445C24.762,104.845,45.354,114.199,48.979,105.871z"/>
		<path fill="#FFFFFF" d="M30.963,120.339c-0.766,8.81,20.631,10.279,21.085,1.678C52.499,113.477,31.71,111.752,30.963,120.339z"/>
		<path fill="#FFFFFF" d="M62.087,95.051c-2.972,1.299-9.027,5.978-9.362,13.644c-0.478,10.948,12.475,37.045,23.414,22.568
			c4.047-5.356,2.617-8.91,5.371-12.871c2.705-3.994,6.537-3.941,10.078-9.644C101.159,93.334,72.133,90.661,62.087,95.051z"/>
		<path fill="#FFFFFF" d="M58.099,92.572c6.463-6.382-9.682-22.221-16.091-15.447C35.761,83.729,51.682,98.909,58.099,92.572z"/>
		<path fill="#FFFFFF" d="M74.266,89.619c7.86-3.522-1.219-22.953-9.161-19.065C57.363,74.344,66.462,93.116,74.266,89.619z"/>
	</g>
	<g>
		<path fill="#FFFFFF" d="M22.286,187.131c-0.655-8.994-22.634-8.056-22.282,1.027C0.365,197.477,22.946,196.191,22.286,187.131z"/>
		<path fill="#FFFFFF" d="M13.057,208.315c3.416,8.157,23.045-0.486,19.45-8.313C28.937,192.23,9.728,200.364,13.057,208.315z"/>
		<path fill="#FFFFFF" d="M61.351,169.878c1.311-18.097-25.632-6.974-32.487,1.581c-2.028,2.531-5.215,9.488-1.949,16.432
			c4.665,9.916,28.261,27.005,31.22,9.103c1.095-6.623-1.823-9.106-1.226-13.893C57.448,178.308,60.866,176.573,61.351,169.878z"/>
		<path fill="#FFFFFF" d="M24.181,171.118c2.756-8.655-18.9-15.177-21.426-6.2C0.292,173.669,21.444,179.711,24.181,171.118z"/>
		<path fill="#FFFFFF" d="M37.124,160.989c5.323-6.772-11.746-19.758-16.972-12.624C15.058,155.32,31.839,167.713,37.124,160.989z"
			/>
	</g>
	<g>
		<path fill="#FFFFFF" d="M36.414,271.489c-4.76-7.66-23.785,3.385-19.252,11.264C21.812,290.837,41.208,279.204,36.414,271.489z"/>
		<path fill="#FFFFFF" d="M51.445,278.135c-6.772-5.222-20.002,10.907-13.358,16.4C44.902,300.17,58.266,283.395,51.445,278.135z"/>
		<path fill="#FFFFFF" d="M72.74,263.562c-2.109-6.374-5.846-7.216-7.542-11.732c-1.751-4.495,0.47-7.619-2.212-13.773
			c-7.249-16.633-25.937,5.736-28.031,16.498c-0.62,3.184-0.209,10.825,5.911,15.456C49.604,276.623,78.439,280.788,72.74,263.562z"
			/>
		<path fill="#FFFFFF" d="M30.65,256.429c-1.581-8.944-23.788-4.655-21.853,4.468C10.683,269.789,32.22,265.31,30.65,256.429z"/>
		<path fill="#FFFFFF" d="M37.403,241.446c1.566-8.47-19.582-12.036-20.894-3.29C15.231,246.68,35.848,249.855,37.403,241.446z"/>
	</g>
	<g>
		<path fill="#FFFFFF" d="M88.126,339.619c-7.775-4.57-19.487,14.051-11.812,18.921C84.188,363.536,95.957,344.221,88.126,339.619z"
			/>
		<path fill="#FFFFFF" d="M104.525,338.518c-8.424-1.477-12.642,18.953-4.207,20.729
			C108.971,361.069,113.009,340.005,104.525,338.518z"/>
		<path fill="#FFFFFF" d="M116.608,315.718c-4.829-4.663-8.53-3.672-12.13-6.883c-3.639-3.166-3.125-6.965-8.359-11.167
			c-14.149-11.359-20.3,17.133-17.153,27.635c0.931,3.107,4.846,9.682,12.416,10.938
			C102.192,338.034,129.66,328.322,116.608,315.718z"/>
		<path fill="#FFFFFF" d="M76.024,328.962c-5.557-7.185-23.227,6.933-17.274,14.112C64.553,350.071,81.541,336.096,76.024,328.962z"
			/>
		<path fill="#FFFFFF" d="M75.041,312.557c-2.549-8.228-22.933-1.557-20.03,6.797C57.84,327.495,77.572,320.725,75.041,312.557z"/>
	</g>
	<g>
		<path fill="#FFFFFF" d="M165.577,375.912c-9.008-0.434-10.725,21.497-1.666,22.243C173.205,398.92,174.65,376.349,165.577,375.912
			z"/>
		<path fill="#FFFFFF" d="M179.585,367.317c-8.145,2.607-2.386,22.657,5.908,20.31C194.003,385.219,187.789,364.691,179.585,367.317
			z"/>
		<path fill="#FFFFFF" d="M166.889,371.408c10.406-3.435,30.214-24.8,12.799-29.895c-6.443-1.885-9.259,0.712-13.939-0.458
			c-4.694-1.113-6.003-4.715-12.592-6.003c-17.807-3.483-10.013,24.604-2.346,32.441
			C153.08,369.811,159.602,373.814,166.889,371.408z"/>
		<path fill="#FFFFFF" d="M149.909,372.101c-8.26-3.779-17.344,16.933-8.737,20.523
			C149.561,396.123,158.109,375.853,149.909,372.101z"/>
		<path fill="#FFFFFF" d="M141.414,358.031c-6.081-6.1-21.03,9.279-14.577,15.326C133.126,379.252,147.451,364.088,141.414,358.031z
			"/>
	</g>
	<g>
		<path fill="#FFFFFF" d="M251.022,372.055c-8.178,3.802,0.493,24.02,8.861,20.469C268.469,388.883,259.259,368.226,251.022,372.055
			z"/>
		<path fill="#FFFFFF" d="M259.432,357.935c-6,6.093,8.417,21.171,14.67,15.238C280.517,367.086,265.475,351.797,259.432,357.935z"
			/>
		<path fill="#FFFFFF" d="M234.036,371.462c3.086,0.999,10.721,1.512,16.055-4.005c7.617-7.878,15.228-36.001-2.56-32.419
			c-6.581,1.325-7.868,4.934-12.555,6.073c-4.673,1.196-7.507-1.385-13.939,0.536C203.652,346.838,223.605,368.086,234.036,371.462z
			"/>
		<path fill="#FFFFFF" d="M235.378,375.962c-9.07,0.492-7.489,23.053,1.801,22.232C246.234,397.394,244.383,375.474,235.378,375.962
			z"/>
		<path fill="#FFFFFF" d="M221.317,367.452c-8.219-2.576-14.309,17.989-5.785,20.345
			C223.841,390.094,229.478,370.009,221.317,367.452z"/>
	</g>
	<g>
		<path fill="#FFFFFF" d="M324.888,328.932c-5.474,7.167,11.599,21.039,17.359,14.007
			C348.157,335.724,330.402,321.714,324.888,328.932z"/>
		<path fill="#FFFFFF" d="M325.772,312.521c-2.482,8.184,17.291,14.834,20.071,6.675
			C348.695,310.824,328.271,304.278,325.772,312.521z"/>
		<path fill="#FFFFFF" d="M321.927,325.294c3.084-10.515-3.246-38.954-17.333-27.516c-5.211,4.232-4.673,8.025-8.295,11.212
			c-3.582,3.231-7.291,2.262-12.094,6.952c-12.982,12.676,14.561,22.217,25.366,20.359
			C312.769,335.751,319.768,332.657,321.927,325.294z"/>
		<path fill="#FFFFFF" d="M312.851,339.661c-7.802,4.65,4.083,23.893,11.927,18.849
			C332.423,353.594,320.598,335.044,312.851,339.661z"/>
		<path fill="#FFFFFF" d="M296.446,338.66c-8.475,1.539-4.31,22.578,4.333,20.703C309.203,357.536,304.861,337.132,296.446,338.66z"
			/>
	</g>
	<g>
		<path fill="#FFFFFF" d="M370.253,256.421c-1.516,8.89,20.048,13.239,21.88,4.335C394.012,251.622,371.78,247.467,370.253,256.421z
			"/>
		<path fill="#FFFFFF" d="M384.283,238.061c-1.365-8.738-22.491-5.043-20.874,3.417
			C365.015,249.878,385.613,246.578,384.283,238.061z"/>
		<path fill="#FFFFFF" d="M365.94,254.575c-2.156-10.744-20.977-32.983-28.134-16.309c-2.648,6.169-0.409,9.278-2.134,13.782
			c-1.67,4.525-5.404,5.391-7.477,11.776c-5.604,17.257,23.218,12.906,31.922,6.239C362.69,268.091,367.45,262.099,365.94,254.575z"
			/>
		<path fill="#FFFFFF" d="M364.581,271.515c-4.748,7.744,14.719,19.259,19.32,11.147
			C388.386,274.756,369.294,263.827,364.581,271.515z"/>
		<path fill="#FFFFFF" d="M349.59,278.252c-6.789,5.301,6.676,21.995,13.458,16.318C369.657,289.038,356.33,272.989,349.59,278.252z
			"/>
	</g>
	<g>
		<path fill="#FFFFFF" d="M376.724,171.133c2.789,8.576,23.904,2.405,21.388-6.33C395.531,155.842,373.915,162.496,376.724,171.133z
			"/>
		<path fill="#FFFFFF" d="M380.614,148.357c-5.269-7.103-22.259,5.987-16.895,12.726C369.045,167.775,385.75,155.28,380.614,148.357
			z"/>
		<path fill="#FFFFFF" d="M374.087,187.925c1.364-2.943,2.793-10.461-2.04-16.421c-6.902-8.511-33.903-19.457-32.491-1.367
			c0.522,6.693,3.95,8.405,4.515,13.196c0.624,4.783-2.28,7.285-1.148,13.902C345.981,215.119,369.479,197.872,374.087,187.925z"/>
		<path fill="#FFFFFF" d="M378.716,187.135c-0.605,9.063,21.983,10.213,22.287,0.892C401.3,178.942,379.317,178.137,378.716,187.135
			z"/>
		<path fill="#FFFFFF" d="M368.573,200.067c-3.548,7.849,16.133,16.373,19.5,8.195C391.354,200.291,372.096,192.274,368.573,200.067
			z"/>
	</g>
	<g>
		<path fill="#FFFFFF" d="M358.815,77.064c-6.45-6.736-22.498,9.201-15.997,15.544C349.273,98.906,365.102,83.629,358.815,77.064z"
			/>
		<path fill="#FFFFFF" d="M326.633,89.753c7.825,3.45,16.81-15.377,9.046-19.12C327.712,66.792,318.752,86.278,326.633,89.753z"/>
		<path fill="#FFFFFF" d="M338.849,95.109c-10.067-4.329-39.061-1.472-29.405,13.889c3.573,5.684,7.403,5.607,10.13,9.586
			c2.775,3.945,1.367,7.51,5.444,12.843c11.019,14.415,23.81-11.777,23.268-22.727C348.127,105.461,345.899,98.141,338.849,95.109z"
			/>
		<path fill="#FFFFFF" d="M352.019,105.851c3.676,8.306,24.211-1.173,20.149-9.568C368.208,88.101,348.369,97.604,352.019,105.851z"
			/>
		<path fill="#FFFFFF" d="M349.047,122.015c0.506,8.598,21.894,7,21.075-1.806C369.323,111.627,348.545,113.478,349.047,122.015z"/>
	</g>
	<g>
		<path fill="#FFFFFF" d="M276.304,38.834c8.642,2.577,15.559-18.306,6.941-21.198C274.403,14.669,267.6,36.239,276.304,38.834z"/>
		<path fill="#FFFFFF" d="M260.645,43.827c8.532-0.582,7.739-21.428-0.876-21.134C250.931,22.995,252.052,44.413,260.645,43.827z"/>
		<path fill="#FFFFFF" d="M273.952,42.893c-10.925,0.845-35.271,16.849-19.582,25.963c5.805,3.372,9.161,1.524,13.425,3.78
			c4.291,2.204,4.701,6.015,10.789,8.842c16.456,7.643,15.61-21.493,10.042-30.937C286.977,47.748,281.603,42.301,273.952,42.893z"
			/>
		<path fill="#FFFFFF" d="M303.999,28.449c-7.308-5.405-20.459,12.23-13.394,17.836C297.719,51.931,311.497,33.994,303.999,28.449z"
			/>
		<path fill="#FFFFFF" d="M313.307,50.585c-4.696-7.229-22.234,4.067-17.822,11.392C299.93,69.356,318.125,58.002,313.307,50.585z"
			/>
	</g>
</g>
</svg>
